<svg width="27" height="27" viewBox="0 0 27 27" fill="none" xmlns="http://www.w3.org/2000/svg">
    <path d="M4.93004 0C2.19901 0 0 2.19901 0 4.93004V22.07C0 24.801 2.19901 27 4.93004 27H14.2197V16.4447H11.4286V12.6445H14.2197V9.3977C14.2197 6.84688 15.8689 4.50479 19.6678 4.50479C21.206 4.50479 22.3434 4.65245 22.3434 4.65245L22.2539 8.20128C22.2539 8.20128 21.0939 8.19031 19.8281 8.19031C18.4582 8.19031 18.2385 8.82152 18.2385 9.86939V12.6445H22.3628L22.183 16.4447H18.2385V27.0001H22.07C24.801 27.0001 27 24.801 27 22.07V4.93006C27 2.19904 24.801 2.7e-05 22.07 2.7e-05H4.93001L4.93004 0Z" fill="url(#paint0_linear_1_120)"/>
    <defs>
        <linearGradient id="paint0_linear_1_120" x1="30.7219" y1="9.97906" x2="-1.78146" y2="9.91782" gradientUnits="userSpaceOnUse">
            <stop stop-color="#6B49FC"/>
            <stop offset="0.830081" stop-color="#DE85FF"/>
            <stop offset="1" stop-color="#E26FF1"/>
        </linearGradient>
    </defs>
</svg>
