<svg width="33" height="23" viewBox="0 0 33 23" fill="none" xmlns="http://www.w3.org/2000/svg">
    <path d="M32.3114 3.94613C32.1245 3.27957 31.7606 2.67611 31.2581 2.19988C30.7415 1.70901 30.1084 1.35788 29.4184 1.17963C26.8361 0.499006 16.4906 0.499006 16.4906 0.499006C12.1777 0.449936 7.86586 0.665758 3.5794 1.14526C2.88941 1.33667 2.25742 1.69565 1.73965 2.19026C1.2309 2.67976 0.862396 3.28338 0.669896 3.94476C0.207473 6.4359 -0.017203 8.96535 -0.0011045 11.499C-0.0176045 14.0304 0.20652 16.559 0.669896 19.0533C0.85827 19.7119 1.2254 20.3128 1.73552 20.7981C2.24565 21.2835 2.8809 21.6341 3.5794 21.8198C6.19602 22.499 16.4906 22.499 16.4906 22.499C20.8091 22.5481 25.1264 22.3323 29.4184 21.8528C30.1084 21.6745 30.7415 21.3234 31.2581 20.8325C31.7604 20.3564 32.1239 19.7528 32.31 19.0863C32.7845 16.5961 33.0152 14.0656 32.9989 11.5306C33.0346 8.98496 32.8042 6.44253 32.3114 3.94476V3.94613ZM13.2016 16.207V6.79238L21.8091 11.5004L13.2016 16.207Z" fill="url(#paint0_linear_1_112)"/>
    <defs>
        <linearGradient id="paint0_linear_1_112" x1="37.5521" y1="8.6283" x2="-2.17941" y2="8.51608" gradientUnits="userSpaceOnUse">
            <stop stop-color="#6B49FC"/>
            <stop offset="0.830081" stop-color="#DE85FF"/>
            <stop offset="1" stop-color="#E26FF1"/>
        </linearGradient>
    </defs>
</svg>
